<?xml version="1.0" standalone="no" ?>
<!DOCTYPE svg PUBLIC "-//W3C//DTD SVG 1.1//EN" "http://www.w3.org/Graphics/SVG/1.1/DTD/svg11.dtd">
<svg width="640px" height="480px" xmlns="http://www.w3.org/2000/svg" version="1.1" >
	<circle cx="65" cy="143" r="5.71429" fill="rgb(75,75,75)" />
	<circle cx="257" cy="16" r="9.25926" fill="rgb(8,8,8)" />
	<circle cx="21" cy="133" r="5.88235" fill="rgb(70,70,70)" />
	<circle cx="512" cy="92" r="6.75676" fill="rgb(48,48,48)" />
	<circle cx="250" cy="147" r="5.64972" fill="rgb(77,77,77)" />
	<circle cx="461" cy="98" r="6.62252" fill="rgb(51,51,51)" />
	<circle cx="336" cy="19" r="9.17431" fill="rgb(9,9,9)" />
	<circle cx="178" cy="229" r="4.52489" fill="rgb(121,121,121)" />
	<circle cx="422" cy="186" r="5.05051" fill="rgb(98,98,98)" />
	<circle cx="573" cy="55" r="7.75194" fill="rgb(29,29,29)" />
	<circle cx="296" cy="245" r="4.34783" fill="rgb(130,130,130)" />
	<circle cx="154" cy="139" r="5.78035" fill="rgb(73,73,73)" />
	<circle cx="536" cy="230" r="4.5045" fill="rgb(122,122,122)" />
	<circle cx="458" cy="355" r="3.43643" fill="rgb(191,191,191)" />
	<circle cx="535" cy="131" r="5.91716" fill="rgb(69,69,69)" />
	<circle cx="39" cy="274" r="4.06504" fill="rgb(146,146,146)" />
	<circle cx="371" cy="188" r="5.02513" fill="rgb(99,99,99)" />
	<circle cx="225" cy="193" r="4.9505" fill="rgb(102,102,102)" />
	<circle cx="536" cy="18" r="9.17431" fill="rgb(9,9,9)" />
	<circle cx="45" cy="16" r="9.25926" fill="rgb(8,8,8)" />
	<circle cx="202" cy="79" r="7.0922" fill="rgb(41,41,41)" />
	<circle cx="87" cy="100" r="6.57895" fill="rgb(52,52,52)" />
	<circle cx="322" cy="188" r="5" fill="rgb(100,100,100)" />
	<circle cx="529" cy="55" r="7.8125" fill="rgb(28,28,28)" />
	<circle cx="219" cy="14" r="9.34579" fill="rgb(7,7,7)" />
	<circle cx="332" cy="313" r="3.74532" fill="rgb(167,167,167)" />
	<circle cx="565" cy="94" r="6.71141" fill="rgb(49,49,49)" />
	<circle cx="18" cy="56" r="7.75194" fill="rgb(29,29,29)" />
	<circle cx="55" cy="52" r="7.87402" fill="rgb(27,27,27)" />
	<circle cx="273" cy="51" r="7.93651" fill="rgb(26,26,26)" />
	<circle cx="70" cy="197" r="4.90196" fill="rgb(104,104,104)" />
	<circle cx="92" cy="58" r="7.69231" fill="rgb(30,30,30)" />
	<circle cx="77" cy="18" r="9.17431" fill="rgb(9,9,9)" />
	<circle cx="454" cy="19" r="9.17431" fill="rgb(9,9,9)" />
	<circle cx="396" cy="141" r="5.74713" fill="rgb(74,74,74)" />
	<circle cx="403" cy="297" r="3.87597" fill="rgb(158,158,158)" />
	<circle cx="54" cy="92" r="6.75676" fill="rgb(48,48,48)" />
	<circle cx="195" cy="45" r="8.13008" fill="rgb(23,23,23)" />
	<circle cx="473" cy="208" r="4.7619" fill="rgb(110,110,110)" />
	<circle cx="562" cy="181" r="5.12821" fill="rgb(95,95,95)" />
	<circle cx="325" cy="97" r="6.62252" fill="rgb(51,51,51)" />
	<circle cx="353" cy="58" r="7.69231" fill="rgb(30,30,30)" />
	<circle cx="614" cy="97" r="6.62252" fill="rgb(51,51,51)" />
	<circle cx="619" cy="19" r="9.17431" fill="rgb(9,9,9)" />
	<circle cx="275" cy="190" r="5" fill="rgb(100,100,100)" />
	<circle cx="312" cy="56" r="7.75194" fill="rgb(29,29,29)" />
	<circle cx="111" cy="19" r="9.17431" fill="rgb(9,9,9)" />
	<circle cx="162" cy="60" r="7.63359" fill="rgb(31,31,31)" />
	<circle cx="242" cy="110" r="6.32911" fill="rgb(58,58,58)" />
	<circle cx="165" cy="185" r="5.07614" fill="rgb(97,97,97)" />
	<circle cx="451" cy="148" r="5.61798" fill="rgb(78,78,78)" />
	<circle cx="104" cy="282" r="4" fill="rgb(150,150,150)" />
	<circle cx="511" cy="175" r="5.20833" fill="rgb(92,92,92)" />
	<circle cx="148" cy="19" r="9.17431" fill="rgb(9,9,9)" />
	<circle cx="355" cy="242" r="4.38596" fill="rgb(128,128,128)" />
	<circle cx="124" cy="96" r="6.66667" fill="rgb(50,50,50)" />
	<circle cx="345" cy="141" r="5.74713" fill="rgb(74,74,74)" />
	<circle cx="577" cy="18" r="9.17431" fill="rgb(9,9,9)" />
	<circle cx="297" cy="17" r="9.25926" fill="rgb(8,8,8)" />
	<circle cx="202" cy="152" r="5.55556" fill="rgb(80,80,80)" />
	<circle cx="416" cy="100" r="6.57895" fill="rgb(52,52,52)" />
	<circle cx="534" cy="291" r="3.92157" fill="rgb(155,155,155)" />
	<circle cx="617" cy="58" r="7.69231" fill="rgb(30,30,30)" />
	<circle cx="471" cy="269" r="4.11523" fill="rgb(143,143,143)" />
	<circle cx="232" cy="45" r="8.13008" fill="rgb(23,23,23)" />
	<circle cx="26" cy="225" r="4.56621" fill="rgb(119,119,119)" />
	<circle cx="110" cy="138" r="5.81395" fill="rgb(72,72,72)" />
	<circle cx="415" cy="235" r="4.44444" fill="rgb(125,125,125)" />
	<circle cx="48" cy="352" r="3.46021" fill="rgb(189,189,189)" />
	<circle cx="605" cy="292" r="3.92157" fill="rgb(155,155,155)" />
	<circle cx="18" cy="93" r="6.71141" fill="rgb(49,49,49)" />
	<circle cx="282" cy="93" r="6.71141" fill="rgb(49,49,49)" />
	<circle cx="296" cy="139" r="5.78035" fill="rgb(73,73,73)" />
	<circle cx="117" cy="181" r="5.12821" fill="rgb(95,95,95)" />
	<circle cx="182" cy="15" r="9.34579" fill="rgb(7,7,7)" />
	<circle cx="375" cy="19" r="9.17431" fill="rgb(9,9,9)" />
	<circle cx="237" cy="246" r="4.34783" fill="rgb(130,130,130)" />
	<circle cx="618" cy="139" r="5.78035" fill="rgb(73,73,73)" />
	<circle cx="484" cy="57" r="7.75194" fill="rgb(29,29,29)" />
	<circle cx="493" cy="132" r="5.91716" fill="rgb(69,69,69)" />
	<circle cx="128" cy="56" r="7.75194" fill="rgb(29,29,29)" />
	<circle cx="396" cy="58" r="7.69231" fill="rgb(30,30,30)" />
	<circle cx="249" cy="313" r="3.74532" fill="rgb(167,167,167)" />
	<circle cx="15" cy="19" r="9.17431" fill="rgb(9,9,9)" />
	<circle cx="201" cy="114" r="6.25" fill="rgb(60,60,60)" />
	<circle cx="414" cy="19" r="9.17431" fill="rgb(9,9,9)" />
	<circle cx="614" cy="185" r="5.07614" fill="rgb(97,97,97)" />
	<circle cx="175" cy="284" r="3.98406" fill="rgb(151,151,151)" />
	<circle cx="23" cy="177" r="5.18135" fill="rgb(93,93,93)" />
	<circle cx="495" cy="18" r="9.17431" fill="rgb(9,9,9)" />
	<circle cx="439" cy="58" r="7.69231" fill="rgb(30,30,30)" />
	<circle cx="576" cy="136" r="5.84795" fill="rgb(71,71,71)" />
	<circle cx="242" cy="76" r="7.14286" fill="rgb(40,40,40)" />
	<circle cx="154" cy="356" r="3.43643" fill="rgb(191,191,191)" />
	<circle cx="116" cy="230" r="4.5045" fill="rgb(122,122,122)" />
	<circle cx="162" cy="99" r="6.57895" fill="rgb(52,52,52)" />
	<circle cx="302" cy="413" r="3.03951" fill="rgb(229,229,229)" />
	<circle cx="577" cy="368" r="3.3557" fill="rgb(198,198,198)" />
	<circle cx="604" cy="234" r="4.46429" fill="rgb(124,124,124)" />
	<circle cx="369" cy="98" r="6.62252" fill="rgb(51,51,51)" />
</svg>
