<?xml version="1.0" ?>
<!DOCTYPE svg PUBLIC "-//W3C//DTD SVG 1.1//EN" "http://www.w3.org/Graphics/SVG/1.1/DTD/svg11.dtd">
<svg width="640" height="480" version="1.1" xmlns="http://www.w3.org/2000/svg">
<circle cx="162.246" cy="22.4575" r="26.8979" fill="rgb(11,11,11)" />
<circle cx="363.013" cy="23.3093" r="27.2957" fill="rgb(12,12,12)" />
<circle cx="204.782" cy="24.1306" r="27.6549" fill="rgb(12,12,12)" />
<circle cx="533.631" cy="24.3817" r="30.3159" fill="rgb(12,12,12)" />
<circle cx="245.413" cy="24.7527" r="28.3174" fill="rgb(12,12,12)" />
<circle cx="423.599" cy="65.2754" r="22.4251" fill="rgb(34,34,34)" />
<circle cx="543.94" cy="69.8048" r="25.7473" fill="rgb(36,36,36)" />
<circle cx="378.141" cy="69.7961" r="23.3077" fill="rgb(36,36,36)" />
<circle cx="323.047" cy="23.9855" r="28.8211" fill="rgb(12,12,12)" />
<circle cx="332.018" cy="71.6361" r="24.4819" fill="rgb(37,37,37)" />
<circle cx="503.559" cy="80.8019" r="26.6548" fill="rgb(42,42,42)" />
<circle cx="579.111" cy="106.378" r="20.5401" fill="rgb(56,56,56)" />
<circle cx="407.078" cy="112.996" r="20.8119" fill="rgb(59,59,59)" />
<circle cx="456.585" cy="102.613" r="20.4772" fill="rgb(54,54,54)" />
<circle cx="358.962" cy="119.247" r="21.08" fill="rgb(62,62,62)" />
<circle cx="260.705" cy="118.899" r="23.1125" fill="rgb(62,62,62)" />
<circle cx="535.112" cy="122.008" r="20.7358" fill="rgb(64,64,64)" />
<circle cx="448.042" cy="19.6837" r="24.77" fill="rgb(10,10,10)" />
<circle cx="61.5369" cy="121.604" r="21.57" fill="rgb(64,64,64)" />
<circle cx="207.344" cy="124.522" r="23.3939" fill="rgb(65,65,65)" />
<circle cx="157.975" cy="164.119" r="20.8901" fill="rgb(87,87,87)" />
<circle cx="391.077" cy="165.201" r="21.5576" fill="rgb(87,87,87)" />
<circle cx="296.926" cy="168.332" r="20.876" fill="rgb(89,89,89)" />
<circle cx="246.4" cy="168.257" r="22.5014" fill="rgb(89,89,89)" />
<circle cx="525.71" cy="176.836" r="18.544" fill="rgb(93,93,93)" />
<circle cx="67.029" cy="179.162" r="18.8673" fill="rgb(95,95,95)" />
<circle cx="202.456" cy="180.918" r="17.7845" fill="rgb(95,95,95)" />
<circle cx="477.039" cy="189.756" r="17.4316" fill="rgb(100,100,100)" />
<circle cx="425.839" cy="199.75" r="15.2798" fill="rgb(105,105,105)" />
<circle cx="117.117" cy="203.77" r="17.7636" fill="rgb(107,107,107)" />
<circle cx="142.075" cy="65.1831" r="22.6863" fill="rgb(34,34,34)" />
<circle cx="168.107" cy="223.189" r="16.299" fill="rgb(117,117,117)" />
<circle cx="331.783" cy="222.352" r="18.2406" fill="rgb(117,117,117)" />
<circle cx="155.898" cy="113.894" r="22.0963" fill="rgb(60,60,60)" />
<circle cx="224.507" cy="234.248" r="19.4803" fill="rgb(124,124,124)" />
<circle cx="385.621" cy="230.838" r="18.4456" fill="rgb(122,122,122)" />
<circle cx="441.679" cy="150.285" r="18.2073" fill="rgb(79,79,79)" />
<circle cx="510.588" cy="233.633" r="15.6179" fill="rgb(123,123,123)" />
<circle cx="188.541" cy="72.3546" r="23.9772" fill="rgb(38,38,38)" />
<circle cx="273.02" cy="215.568" r="16.2844" fill="rgb(114,114,114)" />
<circle cx="73.6484" cy="239.035" r="15.7546" fill="rgb(126,126,126)" />
<circle cx="453.463" cy="242.537" r="17.0224" fill="rgb(128,128,128)" />
<circle cx="295.381" cy="262.291" r="17.2914" fill="rgb(139,139,139)" />
<circle cx="127.635" cy="264.728" r="15.0295" fill="rgb(140,140,140)" />
<circle cx="554.413" cy="269.467" r="15.0925" fill="rgb(142,142,142)" />
<circle cx="404.554" cy="22.2308" r="25.9249" fill="rgb(11,11,11)" />
<circle cx="234.792" cy="73.9444" r="24.6046" fill="rgb(38,38,38)" />
<circle cx="184.854" cy="282.163" r="14.0902" fill="rgb(149,149,149)" />
<circle cx="422.174" cy="286.062" r="15.81" fill="rgb(151,151,151)" />
<circle cx="584.961" cy="58.063" r="21.4044" fill="rgb(30,30,30)" />
<circle cx="357.924" cy="285.263" r="14.7601" fill="rgb(151,151,151)" />
<circle cx="488.851" cy="290.612" r="13.5318" fill="rgb(154,154,154)" />
<circle cx="109.465" cy="148.605" r="20.0663" fill="rgb(78,78,78)" />
<circle cx="243.14" cy="293.181" r="14.0098" fill="rgb(155,155,155)" />
<circle cx="81.0149" cy="301.468" r="12.5011" fill="rgb(159,159,159)" />
<circle cx="490.897" cy="136.316" r="20.4853" fill="rgb(72,72,72)" />
<circle cx="541.655" cy="325.367" r="12.4855" fill="rgb(172,172,172)" />
<circle cx="345.78" cy="171.911" r="22.8305" fill="rgb(90,90,90)" />
<circle cx="141.778" cy="330.367" r="12.8515" fill="rgb(175,175,175)" />
<circle cx="468.117" cy="57.9005" r="20.2516" fill="rgb(30,30,30)" />
<circle cx="283.799" cy="70.3211" r="25.9816" fill="rgb(37,37,37)" />
<circle cx="403.452" cy="340.526" r="10.3223" fill="rgb(180,180,180)" />
<circle cx="54.7062" cy="68.282" r="25.6816" fill="rgb(36,36,36)" />
<circle cx="467.737" cy="350.155" r="12.2171" fill="rgb(185,185,185)" />
<circle cx="284.382" cy="22.1564" r="22.9879" fill="rgb(11,11,11)" />
<circle cx="200.52" cy="349.324" r="11.6812" fill="rgb(185,185,185)" />
<circle cx="344.123" cy="357.179" r="9.87544" fill="rgb(189,189,189)" />
<circle cx="266.67" cy="361.983" r="9.34815" fill="rgb(191,191,191)" />
<circle cx="89.5832" cy="366.164" r="8.16282" fill="rgb(194,194,194)" />
<circle cx="493.928" cy="22.5856" r="28.0816" fill="rgb(11,11,11)" />
<circle cx="400.114" cy="412.63" r="5.10503" fill="rgb(218,218,218)" />
<circle cx="105.27" cy="100.286" r="23.7122" fill="rgb(53,53,53)" />
<circle cx="140.921" cy="413.918" r="5.26736" fill="rgb(219,219,219)" />
<circle cx="608.301" cy="300.049" r="13.3089" fill="rgb(159,159,159)" />
<circle cx="21.5923" cy="150.593" r="20.8054" fill="rgb(79,79,79)" />
<circle cx="302.429" cy="314.645" r="10.897" fill="rgb(166,166,166)" />
<circle cx="26.071" cy="273.961" r="14.4623" fill="rgb(145,145,145)" />
<circle cx="535.321" cy="385.542" r="7.17983" fill="rgb(204,204,204)" />
<circle cx="313.294" cy="421.081" r="4.24044" fill="rgb(223,223,223)" />
<circle cx="572.738" cy="158.707" r="18.6031" fill="rgb(83,83,83)" />
<circle cx="222.997" cy="419.582" r="4.37929" fill="rgb(222,222,222)" />
<circle cx="479.538" cy="422.839" r="5.14938" fill="rgb(224,224,224)" />
<circle cx="617.721" cy="134.672" r="19.6154" fill="rgb(71,71,71)" />
<circle cx="310.724" cy="119.035" r="23.8883" fill="rgb(63,63,63)" />
<circle cx="116.451" cy="19.437" r="25.1742" fill="rgb(10,10,10)" />
<circle cx="66.2517" cy="19.9649" r="24.1147" fill="rgb(10,10,10)" />
<circle cx="23.7203" cy="211.225" r="17.5613" fill="rgb(112,112,112)" />
<circle cx="18.7127" cy="90.4113" r="25.4266" fill="rgb(47,47,47)" />
<circle cx="564.84" cy="213.7" r="16.0288" fill="rgb(113,113,113)" />
<circle cx="20.6102" cy="27.8589" r="29.4699" fill="rgb(14,14,14)" />
<circle cx="96.1491" cy="56.6457" r="20.9033" fill="rgb(29,29,29)" />
<circle cx="41.6877" cy="417.862" r="4.93296" fill="rgb(221,221,221)" />
<circle cx="28.1334" cy="341.586" r="10.9801" fill="rgb(181,181,181)" />
<circle cx="595.137" cy="424.863" r="5.04106" fill="rgb(225,225,225)" />
<circle cx="615.13" cy="189.107" r="16.9674" fill="rgb(100,100,100)" />
<circle cx="605.794" cy="358.478" r="9.39787" fill="rgb(190,190,190)" />
<circle cx="620.399" cy="80.3149" r="23.1594" fill="rgb(42,42,42)" />
<circle cx="619.195" cy="24.7764" r="26.347" fill="rgb(12,12,12)" />
<circle cx="612.258" cy="244.175" r="15.4993" fill="rgb(129,129,129)" />
<circle cx="575.339" cy="18.464" r="28.955" fill="rgb(9,9,9)" />
</svg>
